<?xml version="1.0" encoding="utf-8"?>
<svg xmlns="http://www.w3.org/2000/svg" viewBox="26.656 2.9132 12.091 18.6716" width="20.721952055528px" height="32px"><path d="M 35.756 12.083 C 35.722 12.303 35.589 12.497 35.396 12.607 C 35.204 12.733 35.036 12.797 34.866 12.861 C 34.504 12.989 34.123 13.118 33.72 13.267 C 33.295 13.417 32.914 13.565 32.574 13.674 C 32.15 13.823 30.805 14.39 30.559 14.586 C 30.33 14.796 30.13 15.035 29.965 15.299 C 29.795 15.59 29.688 15.965 29.688 16.401 C 29.688 17.274 29.9 17.935 30.325 18.347 C 30.749 18.78 31.535 18.979 32.7 18.967 C 33.888 18.955 34.694 18.719 35.12 18.258 C 35.543 17.797 35.755 17.151 35.755 16.321 L 35.755 12.083 L 35.756 12.083 Z M 32.701 2.914 C 34.781 2.894 36.308 3.273 37.283 4.073 C 38.259 4.854 38.747 5.865 38.747 7.069 L 38.747 17.329 C 38.747 17.744 38.663 18.202 38.515 18.702 C 38.365 19.203 38.069 19.662 37.602 20.08 C 37.157 20.502 36.542 20.861 35.757 21.138 C 34.972 21.416 33.954 21.571 32.702 21.584 C 31.452 21.597 30.432 21.462 29.648 21.2 C 28.864 20.937 28.248 20.59 27.803 20.178 C 27.389 19.809 27.075 19.341 26.891 18.816 C 26.741 18.321 26.656 17.865 26.656 17.45 L 26.656 15.81 C 26.656 14.937 26.889 14.124 27.356 13.413 C 27.823 12.683 28.48 12.178 29.329 11.858 C 29.753 11.708 30.241 11.558 30.792 11.366 C 31.344 11.172 31.852 10.981 32.362 10.81 C 32.872 10.638 33.317 10.467 33.698 10.317 C 33.928 10.223 34.161 10.138 34.398 10.063 L 34.78 9.872 C 34.93 9.787 35.077 9.66 35.226 9.493 C 35.374 9.326 35.501 9.139 35.608 8.929 C 35.721 8.703 35.779 8.453 35.778 8.201 L 35.778 7.536 C 35.78 7.292 35.728 7.052 35.628 6.831 C 35.544 6.582 35.374 6.355 35.141 6.151 C 34.908 5.945 34.589 5.782 34.208 5.66 C 33.826 5.541 33.318 5.483 32.744 5.488 C 31.556 5.5 30.771 5.738 30.347 6.219 C 29.987 6.638 29.775 7.159 29.733 7.74 C 29.733 7.865 29.627 7.95 29.499 7.95 L 26.912 8.018 C 26.784 8.021 26.68 7.919 26.678 7.791 L 26.678 7.191 C 26.678 6.608 26.785 6.067 27.018 5.546 C 27.252 5.023 27.613 4.584 28.1 4.205 C 28.588 3.827 29.225 3.51 29.988 3.294 C 30.731 3.037 31.643 2.924 32.703 2.914 L 32.701 2.914 Z" fill="#fff" fill-rule="evenodd" style="" id="object-0"/></svg>